<?xml version="1.0" standalone="no"?>
<!DOCTYPE svg PUBLIC "-//W3C//DTD SVG 20010904//EN"
 "http://www.w3.org/TR/2001/REC-SVG-20010904/DTD/svg10.dtd">
<svg version="1.0" xmlns="http://www.w3.org/2000/svg"
 width="8000.000000pt" height="4500.000000pt" viewBox="0 0 8000.000000 4500.000000"
 preserveAspectRatio="xMidYMid meet">

<g transform="translate(0.000000,4500.000000) scale(0.100000,-0.100000)"
fill="#000000" stroke="none">
<path d="M39410 36974 c-30 -2 -143 -8 -250 -14 -2686 -146 -5327 -1071 -7540
-2644 -950 -675 -1847 -1493 -2611 -2381 -2005 -2332 -3211 -5234 -3449 -8295
-31 -408 -40 -665 -40 -1145 0 -628 22 -1040 86 -1615 197 -1775 715 -3475
1541 -5062 465 -893 991 -1690 1652 -2501 l145 -178 1206 1206 1205 1205 2535
435 c3295 566 3061 529 3520 572 259 24 783 24 965 0 430 -58 703 -171 888
-367 144 -152 219 -342 234 -591 5 -89 4 -98 -16 -118 l-21 -21 -768 0 c-732
0 -770 -1 -785 -18 -15 -17 -17 -65 -17 -485 0 -410 2 -467 16 -481 14 -14 98
-16 775 -16 763 0 789 -1 811 -34 12 -18 10 -2984 -2 -3007 -12 -22 -71 -27
-88 -7 -6 7 -31 63 -57 123 -180 424 -513 798 -930 1047 -577 344 -1308 471
-2130 372 -71 -9 -596 -96 -1165 -194 -3265 -563 -4547 -785 -4730 -816 -113
-19 -217 -37 -232 -40 -26 -5 -20 -12 104 -126 807 -740 1794 -1444 2783
-1986 1778 -974 3724 -1559 5745 -1727 383 -31 519 -37 1053 -42 695 -7 1079
10 1687 73 2900 300 5672 1496 7896 3407 167 143 449 397 441 397 -2 0 -862
148 -1913 329 -4686 809 -4218 731 -4554 751 -581 35 -1149 -66 -1605 -286
-529 -254 -927 -660 -1140 -1159 -26 -60 -51 -116 -57 -122 -6 -7 -25 -13 -44
-13 -55 0 -57 12 -51 299 4 225 8 270 30 371 104 471 358 913 862 1500 236
275 455 501 1560 1608 l1150 1153 2270 -391 2270 -390 1205 -1205 1206 -1206
145 178 c1467 1799 2452 3827 2948 6068 155 701 256 1427 312 2250 17 249 23
1213 10 1506 -123 2675 -947 5190 -2424 7404 -719 1078 -1618 2092 -2612 2946
-1449 1245 -3117 2184 -4940 2782 -996 326 -2063 548 -3120 647 -485 45 -651
52 -1290 55 -341 1 -645 1 -675 -1z m2528 -2910 l22 -15 0 -858 c0 -826 -1
-863 -21 -982 -92 -544 -427 -1090 -1143 -1864 -71 -77 -1206 -1218 -2521
-2535 -2196 -2200 -2545 -2554 -2830 -2875 -459 -516 -801 -995 -1011 -1415
-212 -425 -300 -783 -320 -1293 -5 -142 -10 -192 -21 -203 -21 -21 -41 -17
-67 11 -42 45 -115 347 -153 631 -24 186 -24 673 0 874 128 1039 585 1985
1411 2920 66 74 1299 1316 2741 2760 1442 1444 2671 2679 2731 2745 442 484
661 808 842 1241 87 207 185 532 232 768 12 59 44 106 72 106 8 0 24 -7 36
-16z m17 -2668 c14 -22 16 -114 12 -893 -3 -728 -7 -881 -19 -948 -113 -587
-426 -1093 -1177 -1905 -69 -74 -1149 -1161 -2401 -2415 -1252 -1254 -2347
-2358 -2433 -2453 -621 -685 -985 -1242 -1178 -1800 -135 -394 -169 -775 -98
-1127 17 -86 65 -238 123 -392 33 -88 -27 -128 -90 -61 -45 48 -114 141 -176
238 -182 283 -288 561 -349 915 -27 154 -37 518 -19 691 91 896 561 1839 1397
2799 202 233 275 306 2719 2750 1266 1265 2366 2370 2444 2455 635 688 891
1136 1081 1889 27 107 49 202 49 211 0 10 9 29 21 44 27 34 72 35 94 2z m-5
-2676 c7 -14 10 -290 8 -908 l-3 -887 -28 -122 c-100 -441 -339 -867 -786
-1402 -293 -351 -400 -460 -2556 -2621 -1101 -1103 -2033 -2043 -2072 -2090
-397 -479 -635 -912 -741 -1351 -48 -195 -56 -269 -57 -479 0 -163 4 -214 23
-307 66 -331 205 -579 469 -838 68 -67 93 -98 93 -116 0 -64 -51 -64 -180 1
-595 299 -1042 944 -1145 1652 -116 793 181 1629 860 2428 54 63 1172 1191
2485 2505 1312 1315 2427 2435 2476 2490 219 244 366 427 493 617 240 361 408
763 518 1246 23 101 45 171 56 183 24 25 73 25 87 -1z m1920 -1880 c196 -98
359 -218 525 -385 522 -523 753 -1265 629 -2015 -99 -599 -420 -1212 -929
-1774 -54 -60 -592 -602 -1195 -1205 -1050 -1050 -1293 -1302 -1503 -1564
-366 -455 -576 -883 -721 -1465 -19 -76 -39 -163 -46 -194 -8 -41 -19 -63 -37
-78 -32 -25 -48 -25 -73 0 -20 20 -20 33 -20 858 0 903 2 932 55 1141 100 394
342 816 748 1304 256 308 419 479 1297 1362 885 890 971 983 1182 1295 530
780 656 1541 357 2143 -74 150 -161 269 -301 413 -94 96 -128 138 -128 155 0
61 51 64 160 9z m1457 -1826 c75 -81 222 -311 298 -468 159 -325 231 -630 242
-1016 6 -239 -10 -428 -58 -665 -166 -830 -632 -1671 -1423 -2565 -66 -74
-669 -686 -1341 -1360 -1224 -1227 -1373 -1381 -1578 -1627 -418 -501 -651
-963 -798 -1578 -58 -242 -60 -247 -91 -265 -32 -17 -55 -8 -75 31 -16 30 -18
1500 -3 1682 45 543 336 1089 956 1793 244 278 482 523 1490 1534 1035 1039
1083 1089 1273 1305 696 793 1076 1507 1152 2165 7 67 10 173 6 290 -8 258
-39 397 -153 692 -14 38 -16 51 -6 72 19 42 58 35 109 -20z m656 -2623 c44
-53 122 -380 151 -641 86 -753 -66 -1566 -438 -2345 -224 -467 -534 -931 -924
-1380 -53 -60 -555 -571 -1116 -1135 -561 -564 -1111 -1116 -1221 -1227 l-200
-203 -702 0 c-387 0 -703 3 -703 7 0 30 241 374 402 575 303 377 420 500 1884
1968 594 597 1142 1152 1218 1233 672 727 1096 1317 1321 1843 150 348 221
678 233 1080 7 230 12 254 52 254 10 0 29 -13 43 -29z m4883 -4600 c353 -73
600 -357 630 -726 30 -370 -192 -713 -529 -820 -399 -127 -820 35 -990 378
-65 132 -82 211 -81 382 0 160 10 219 61 340 142 338 523 526 909 446z m-9561
-3341 c-3 -5 -40 -58 -81 -117 -280 -399 -470 -853 -590 -1407 -9 -44 -25 -87
-35 -97 -23 -23 -57 -24 -81 -2 -17 15 -18 53 -18 802 0 432 4 791 8 797 21
31 51 33 425 34 236 0 376 -4 372 -10z"/>
<path d="M50535 17676 c-233 -53 -405 -205 -480 -424 -54 -153 -53 -331 0
-485 131 -380 570 -555 940 -377 246 119 387 363 372 649 -15 296 -182 525
-452 617 -66 23 -101 28 -200 30 -77 2 -142 -1 -180 -10z m308 -216 c125 -39
185 -136 175 -282 -7 -87 -43 -149 -114 -197 l-51 -33 120 -201 c65 -111 122
-207 124 -214 4 -10 -17 -13 -86 -13 l-91 0 -23 38 c-13 20 -63 106 -111 190
l-88 152 -69 0 -69 0 0 -190 0 -191 -82 3 -83 3 -3 478 -2 477 194 0 c166 0
203 -3 259 -20z"/>
<path d="M50560 17189 l0 -151 88 4 c101 5 142 23 180 79 20 28 23 43 20 87
-9 100 -55 130 -200 131 l-88 1 0 -151z"/>
</g>
</svg>
