<?xml version="1.0" standalone="no"?>
<!DOCTYPE svg PUBLIC "-//W3C//DTD SVG 20010904//EN"
 "http://www.w3.org/TR/2001/REC-SVG-20010904/DTD/svg10.dtd">
<svg version="1.0" xmlns="http://www.w3.org/2000/svg"
 width="1024.000000pt" height="660.000000pt" viewBox="0 0 1024.000000 660.000000"
 preserveAspectRatio="xMidYMid meet">

<g transform="translate(0.000000,660.000000) scale(0.100000,-0.100000)"
fill="#000000" stroke="none">
<path d="M5386 6075 c-10 -33 -30 -80 -44 -105 -15 -26 -190 -211 -408 -430
-428 -432 -461 -473 -515 -645 -15 -47 -16 -209 -2 -245 9 -21 11 -17 17 36 9
78 53 170 124 259 31 38 219 234 417 435 429 433 428 432 433 590 2 58 2 119
0 135 -3 26 -5 23 -22 -30z"/>
<path d="M5387 5745 c-11 -33 -30 -80 -44 -105 -15 -26 -182 -203 -388 -410
-376 -380 -438 -454 -485 -577 -45 -117 -34 -258 25 -328 l25 -30 -10 28 c-15
43 -12 142 7 189 37 95 95 162 428 498 188 190 362 373 388 407 69 95 78 128
75 268 l-3 120 -18 -60z"/>
<path d="M5392 5425 c-32 -119 -59 -152 -429 -526 -382 -386 -403 -413 -419
-535 -12 -100 37 -218 110 -264 48 -29 49 -26 13 26 -28 41 -32 53 -32 112 1
122 24 154 364 497 321 324 348 355 386 438 24 51 25 65 23 179 -3 123 -3 123
-16 73z"/>
<path d="M5640 5232 c0 -5 9 -17 20 -27 32 -29 54 -99 47 -154 -11 -93 -55
-158 -229 -339 -90 -93 -179 -196 -198 -228 -35 -58 -35 -58 -37 -194 l-3
-135 23 65 c33 95 71 144 277 355 147 150 193 203 217 253 56 112 53 223 -8
315 -27 42 -109 108 -109 89z"/>
<path d="M5825 4994 c4 -10 10 -44 13 -76 10 -126 -47 -217 -297 -473 -288
-293 -311 -332 -311 -523 0 -58 3 -103 6 -99 4 3 17 36 29 72 31 89 69 135
298 372 272 279 330 375 331 543 0 73 -4 92 -27 137 -26 51 -59 88 -42 47z"/>
<path d="M5905 4622 c-9 -80 -55 -175 -128 -262 -29 -36 -143 -157 -253 -270
-110 -113 -210 -220 -222 -237 l-23 -33 88 0 88 0 146 148 c218 219 273 296
315 438 19 65 22 212 6 254 -8 22 -10 17 -17 -38z"/>
<path d="M4797 3943 c-15 -2 -179 -31 -363 -63 l-337 -58 -250 -250 c-138
-138 -249 -253 -246 -256 2 -2 38 2 79 9 511 94 1027 178 1095 178 137 1 245
-53 302 -151 l28 -47 3 98 c1 54 1 139 0 190 l-3 92 -100 0 -100 0 0 65 0 65
98 3 97 3 0 28 c0 36 -41 77 -89 91 -35 10 -158 11 -214 3z"/>
<path d="M5499 3732 c-212 -217 -251 -273 -256 -366 l-4 -61 17 30 c27 49 85
105 139 133 42 22 66 26 150 29 90 4 152 -5 645 -91 299 -52 547 -93 549 -90
3 3 -107 117 -245 255 l-249 249 -260 45 c-143 24 -270 47 -281 50 -17 4 -57
-31 -205 -183z"/>
<path d="M5237 3683 c-4 -3 -7 -49 -7 -101 0 -53 3 -93 6 -89 4 3 16 35 29 70
12 36 30 75 39 88 9 13 16 27 16 31 0 10 -74 11 -83 1z"/>
<path d="M1628 2908 l-48 -20 0 -429 0 -429 50 0 50 0 0 450 c0 248 -1 450 -2
449 -2 0 -24 -10 -50 -21z"/>
<path d="M5460 2911 l-45 -19 1 -157 2 -157 -32 31 c-46 44 -101 64 -176 64
-78 0 -125 -18 -173 -66 -58 -59 -81 -132 -80 -262 0 -139 22 -205 88 -263 93
-82 238 -84 324 -6 21 19 41 34 45 34 3 0 9 -18 12 -40 6 -39 8 -40 45 -40
l39 0 0 450 c0 248 -1 450 -2 449 -2 0 -23 -8 -48 -18z m-123 -347 c55 -41 68
-78 72 -205 3 -100 0 -123 -17 -162 -47 -107 -204 -130 -281 -42 -41 47 -54
102 -49 215 4 107 28 165 83 201 41 27 151 23 192 -7z"/>
<path d="M3066 2884 c-19 -19 -21 -64 -3 -88 29 -39 107 -8 107 43 0 51 -69
81 -104 45z"/>
<path d="M8026 2884 c-30 -29 -14 -98 24 -105 36 -7 68 11 75 41 14 63 -56
108 -99 64z"/>
<path d="M530 2835 l0 -45 50 0 50 0 0 -335 0 -335 -33 0 c-30 0 -34 -4 -49
-45 l-17 -45 149 0 150 0 0 45 0 45 -50 0 -50 0 2 333 3 332 32 3 c26 3 34 10
47 43 9 22 16 42 16 44 0 3 -67 5 -150 5 l-150 0 0 -45z"/>
<path d="M4497 2868 c-111 -290 -320 -825 -324 -830 -2 -5 20 -8 50 -8 l54 0
49 130 49 130 171 0 172 0 49 -127 50 -128 52 -3 c41 -2 52 0 49 11 -1 8 -75
199 -163 425 l-160 412 -46 0 c-28 0 -49 -5 -52 -12z m66 -137 c4 -17 31 -97
62 -179 30 -82 55 -154 55 -161 0 -8 -40 -11 -130 -11 -105 0 -130 3 -130 14
0 8 20 66 44 129 24 63 51 145 61 181 19 69 29 76 38 27z"/>
<path d="M7640 2790 l-45 -18 0 -313 c0 -297 1 -316 21 -354 31 -62 89 -88
182 -82 87 5 100 14 83 56 -12 29 -14 29 -66 24 -50 -5 -56 -3 -84 24 -38 38
-43 74 -39 288 l3 170 93 3 92 3 0 34 0 34 -92 3 -93 3 -5 71 -5 72 -45 -18z"/>
<path d="M8890 2790 l-45 -18 0 -313 c0 -297 1 -316 21 -354 31 -62 89 -88
182 -82 40 2 77 8 83 14 6 6 5 21 -2 41 -10 30 -12 31 -59 25 -37 -4 -56 -1
-76 11 -48 32 -55 68 -52 279 l3 192 93 3 92 3 0 34 0 34 -92 3 -93 3 -5 71
-5 72 -45 -18z"/>
<path d="M1072 2661 c-63 -22 -89 -44 -113 -96 -22 -48 -25 -142 -5 -188 7
-18 30 -47 50 -65 l37 -33 -29 -27 c-16 -15 -33 -38 -37 -51 -10 -34 3 -90 25
-104 27 -16 25 -21 -13 -35 -18 -7 -46 -25 -62 -42 -23 -24 -29 -41 -32 -87
-5 -77 18 -119 83 -153 98 -50 323 -37 417 26 86 57 103 197 34 273 -36 39
-82 52 -210 58 -126 6 -157 16 -157 53 0 10 9 29 21 44 17 22 28 26 73 26 64
0 144 23 181 52 58 46 80 148 50 233 -8 22 -15 41 -15 43 0 1 18 2 39 2 36 0
40 3 51 36 7 19 10 37 8 38 -1 2 -79 6 -173 9 -147 5 -177 3 -223 -12z m190
-90 c32 -28 33 -32 33 -105 0 -69 -2 -78 -27 -103 -23 -22 -38 -28 -91 -31
-59 -4 -67 -2 -96 24 -59 53 -60 164 -2 216 27 24 40 28 91 28 52 0 64 -4 92
-29z m66 -542 c54 -19 62 -106 15 -154 -70 -69 -289 -74 -339 -7 -34 45 -5
140 50 162 31 13 238 12 274 -1z"/>
<path d="M2053 2670 c-55 -12 -92 -31 -129 -72 -100 -105 -120 -305 -46 -442
47 -87 143 -136 267 -136 59 0 172 23 188 39 4 4 2 22 -4 40 -10 28 -15 32
-38 27 -115 -24 -162 -27 -214 -12 -81 24 -137 97 -137 181 l0 35 215 0 215 0
0 63 c0 78 -12 120 -49 179 -50 78 -163 119 -268 98z m141 -99 c33 -18 61 -67
70 -123 l7 -38 -166 0 -165 0 0 23 c0 33 41 108 71 130 52 37 125 41 183 8z"/>
<path d="M2645 2671 c-60 -10 -101 -30 -135 -65 -19 -21 -25 -40 -28 -91 l-4
-65 43 -44 c33 -32 68 -52 141 -81 120 -47 168 -84 168 -128 -1 -41 -18 -63
-63 -82 -46 -19 -117 -19 -190 0 -32 8 -61 15 -65 15 -8 0 -36 -69 -30 -75 1
-1 27 -10 57 -19 70 -20 182 -20 251 0 128 38 179 178 98 269 -30 35 -61 52
-190 105 -136 56 -167 122 -79 170 33 17 146 15 200 -4 60 -22 67 -21 80 15
16 47 16 47 -41 63 -70 20 -152 26 -213 17z"/>
<path d="M3470 2665 c-53 -15 -100 -33 -100 -38 0 -18 24 -67 33 -67 7 1 37 9
67 20 112 40 197 19 225 -54 9 -24 15 -58 13 -77 l-3 -34 -105 -6 c-124 -8
-150 -13 -213 -47 -65 -35 -91 -79 -91 -156 1 -94 37 -145 123 -174 81 -28
196 -4 251 53 19 19 37 35 41 35 3 0 10 -19 15 -42 9 -41 11 -43 47 -46 l39
-3 -4 258 c-3 275 -4 280 -56 336 -49 52 -180 71 -282 42z m238 -389 c-4 -41
-13 -77 -27 -100 -61 -98 -255 -102 -276 -6 -25 112 52 166 239 169 l69 1 -5
-64z"/>
<path d="M6467 2670 c-138 -35 -210 -143 -211 -320 -2 -209 91 -317 279 -328
77 -4 197 16 217 36 4 4 2 23 -5 41 -11 29 -15 32 -42 26 -173 -36 -237 -26
-303 49 -25 29 -52 104 -52 146 0 6 88 10 220 10 l220 0 0 52 c0 122 -63 237
-149 271 -52 21 -127 28 -174 17z m105 -80 c46 0 108 -91 108 -159 0 -21 -3
-21 -165 -21 l-165 0 6 28 c12 51 45 110 72 128 32 21 80 34 107 28 11 -2 28
-4 37 -4z"/>
<path d="M8428 2670 c-112 -20 -177 -94 -163 -186 8 -59 52 -102 141 -140 188
-80 229 -113 209 -170 -24 -67 -129 -92 -254 -59 -69 18 -74 16 -87 -34 -8
-29 4 -37 76 -52 81 -17 206 -8 263 20 65 31 90 71 95 146 6 103 -20 127 -250
229 -56 25 -81 42 -90 61 -16 35 0 76 36 94 39 18 150 17 205 -3 24 -9 48 -16
53 -16 7 0 38 59 38 73 0 8 -116 36 -170 41 -30 2 -76 1 -102 -4z"/>
<path d="M9370 2666 c-61 -18 -100 -34 -100 -43 0 -3 5 -21 11 -38 l12 -32 66
23 c106 38 193 29 227 -24 10 -16 17 -47 18 -81 l1 -56 -105 -6 c-117 -7 -149
-14 -200 -40 -81 -40 -115 -113 -98 -207 17 -96 78 -137 203 -136 88 0 122 13
174 65 18 17 33 30 35 28 2 -2 7 -22 12 -44 9 -37 12 -40 47 -43 l37 -3 0 238
c0 135 -5 254 -11 276 -16 57 -63 104 -122 122 -61 18 -145 18 -207 1z m240
-379 c0 -112 -73 -187 -183 -187 -80 0 -127 39 -127 106 0 86 80 130 243 133
l67 1 0 -53z"/>
<path d="M7092 2644 c-29 -14 -57 -35 -63 -45 -15 -30 -27 -23 -34 21 -7 39
-8 40 -46 40 l-39 0 0 -315 0 -315 50 0 50 0 0 213 c0 201 1 215 23 257 33 65
65 84 150 88 63 3 76 1 101 -19 51 -40 56 -67 56 -314 l0 -225 50 0 50 0 0
233 c0 241 -6 289 -43 341 -49 69 -205 90 -305 40z"/>
<path d="M3060 2345 l0 -315 50 0 50 0 0 315 0 315 -50 0 -50 0 0 -315z"/>
<path d="M5610 2653 c1 -5 53 -145 118 -313 l117 -305 60 -3 60 -3 114 303
c63 167 116 309 119 316 3 9 -11 12 -50 12 l-53 0 -34 -92 c-18 -51 -61 -174
-96 -272 -49 -141 -64 -175 -69 -155 -4 13 -46 135 -94 271 l-87 248 -52 0
c-29 0 -53 -3 -53 -7z"/>
<path d="M8020 2345 l0 -315 50 0 50 0 0 315 0 315 -50 0 -50 0 0 -315z"/>
<path d="M3817 1571 c-31 -48 -57 -91 -57 -95 0 -3 15 -6 34 -6 29 0 44 11
115 85 44 46 81 89 81 95 0 6 -25 10 -58 10 l-58 0 -57 -89z"/>
<path d="M8507 1571 c-31 -48 -57 -91 -57 -95 0 -3 15 -6 34 -6 29 0 44 11
115 85 44 46 81 89 81 95 0 6 -25 10 -58 10 l-58 0 -57 -89z"/>
<path d="M1561 1632 l-43 -17 3 -152 c2 -84 1 -153 -2 -153 -3 0 -14 9 -25 21
-39 43 -94 64 -174 64 -88 0 -140 -23 -189 -82 -49 -59 -66 -122 -66 -243 0
-121 17 -184 66 -243 48 -58 100 -81 189 -81 83 -1 121 14 176 66 l32 30 6
-46 c7 -46 8 -46 47 -46 l39 0 0 450 c0 248 -3 450 -7 449 -5 0 -28 -8 -52
-17z m-136 -334 c67 -35 95 -104 95 -236 0 -150 -35 -212 -133 -231 -141 -29
-218 52 -219 229 0 141 40 226 118 250 32 10 108 3 139 -12z"/>
<path d="M2453 1632 l-43 -16 0 -433 0 -433 50 0 50 0 0 450 c0 248 -3 450 -7
449 -5 0 -27 -8 -50 -17z"/>
<path d="M5316 1598 c-9 -12 -16 -29 -16 -38 0 -50 69 -79 104 -44 19 18 21
75 4 92 -21 21 -75 15 -92 -10z"/>
<path d="M3125 1597 c-67 -23 -103 -45 -132 -84 -26 -33 -28 -44 -28 -123 0
-76 3 -91 25 -124 34 -50 90 -86 207 -132 63 -25 110 -51 135 -75 34 -32 38
-41 38 -87 0 -94 -68 -142 -201 -142 -35 0 -91 7 -124 15 -33 8 -62 14 -65 15
-9 0 -32 -69 -26 -79 8 -13 87 -30 170 -38 84 -7 180 8 237 38 85 43 131 146
109 245 -20 90 -70 133 -225 195 -44 18 -97 43 -117 56 -93 58 -90 180 5 224
65 29 128 25 272 -16 17 -5 23 1 33 28 7 18 12 39 12 45 0 34 -249 64 -325 39z"/>
<path d="M7660 1175 l0 -425 138 0 c232 0 338 30 425 118 146 149 152 455 12
611 -43 48 -137 97 -214 111 -29 5 -123 10 -207 10 l-154 0 0 -425z m408 306
c109 -49 157 -142 157 -307 0 -96 -2 -105 -35 -170 -27 -53 -46 -76 -84 -101
-66 -45 -114 -57 -236 -57 l-105 -1 -3 334 -2 333 127 -4 c107 -3 137 -8 181
-27z"/>
<path d="M4932 1512 l-43 -16 3 -321 c3 -286 5 -324 21 -353 33 -61 111 -90
205 -77 68 9 74 15 61 52 -10 31 -12 31 -69 30 -53 -2 -63 1 -87 26 l-28 27
-3 215 -3 215 96 0 96 0 -3 38 -3 37 -92 3 -93 3 0 69 c0 39 -3 70 -7 69 -5 0
-27 -8 -51 -17z"/>
<path d="M1936 1384 c-74 -23 -139 -94 -165 -179 -54 -173 -6 -350 113 -420
87 -51 243 -57 345 -13 29 13 29 13 15 49 l-15 37 -46 -14 c-55 -17 -170 -18
-210 -3 -46 17 -92 69 -108 123 -28 93 -45 86 206 86 l222 0 -6 76 c-15 167
-99 262 -242 270 -36 2 -79 -2 -109 -12z m159 -84 c48 -23 73 -61 81 -124 l7
-46 -166 0 -166 0 6 33 c11 61 45 111 93 135 55 27 92 28 145 2z"/>
<path d="M3750 1385 c-149 -46 -229 -253 -172 -441 27 -86 66 -135 140 -171
50 -25 68 -28 152 -28 65 0 112 6 148 19 28 9 52 19 52 21 0 1 -7 18 -15 38
l-15 35 -46 -14 c-56 -17 -171 -18 -211 -3 -59 22 -104 87 -118 167 l-7 42
223 0 222 0 -6 73 c-9 107 -30 159 -88 211 -71 64 -160 81 -259 51z m158 -85
c48 -22 81 -78 82 -137 l0 -33 -160 0 -160 0 0 28 c0 51 41 115 90 140 54 27
92 28 148 2z"/>
<path d="M4438 1389 c-21 -6 -57 -28 -82 -50 l-44 -39 -6 45 c-7 45 -8 45 -47
45 l-39 0 0 -460 0 -460 51 0 51 0 -4 180 c-2 99 -2 180 0 180 2 0 22 -15 44
-34 78 -67 206 -72 295 -13 86 57 132 185 120 331 -12 131 -57 215 -140 258
-48 24 -144 32 -199 17z m150 -99 c55 -33 83 -109 83 -220 0 -147 -50 -230
-147 -246 -88 -14 -170 39 -193 123 -14 49 -14 197 -1 245 12 43 53 96 84 108
42 17 139 11 174 -10z"/>
<path d="M5823 1389 c-24 -6 -59 -26 -86 -49 -43 -38 -45 -39 -51 -17 -3 12
-6 32 -6 45 0 21 -4 23 -42 20 l-43 -3 -3 -317 -2 -318 48 0 49 0 5 214 c5
201 7 217 29 263 31 61 75 88 146 87 31 -1 63 -8 78 -18 49 -32 55 -65 55
-316 l0 -230 49 0 49 0 4 223 c3 211 4 224 26 263 13 22 38 49 54 59 38 22
126 25 163 5 55 -29 60 -53 63 -312 l3 -238 50 0 49 0 0 225 c0 245 -9 310
-47 356 -40 47 -79 62 -163 63 -84 0 -140 -22 -186 -73 l-26 -29 -41 43 c-33
33 -53 45 -95 54 -60 13 -71 12 -129 0z"/>
<path d="M6828 1386 c-132 -35 -198 -139 -198 -311 0 -148 48 -244 150 -300
49 -27 64 -30 140 -29 122 1 193 38 244 128 82 143 48 384 -67 467 -75 55
-173 71 -269 45z m187 -95 c66 -38 103 -142 91 -260 -12 -133 -75 -203 -184
-204 -101 -1 -160 51 -183 161 -21 105 6 239 59 285 53 48 152 56 217 18z"/>
<path d="M8826 1380 c-32 -10 -63 -23 -68 -28 -7 -7 3 -48 18 -71 2 -1 33 7
69 19 91 30 174 25 212 -13 21 -21 28 -38 31 -87 2 -33 0 -60 -4 -60 -74 -2
-239 -23 -274 -35 -83 -30 -130 -92 -130 -174 0 -125 69 -185 210 -184 77 0
123 18 169 63 26 27 35 31 42 19 5 -8 9 -22 9 -31 0 -36 12 -48 46 -48 l34 0
0 253 c0 279 -7 312 -66 354 -65 46 -195 56 -298 23z m264 -375 c0 -116 -65
-180 -182 -180 -56 0 -70 4 -91 23 -30 29 -39 68 -26 115 18 66 83 94 222 96
l77 1 0 -55z"/>
<path d="M5310 1070 l0 -320 50 0 50 0 0 320 0 320 -50 0 -50 0 0 -320z"/>
<path d="M8470 1070 l0 -320 50 0 50 0 0 320 0 320 -50 0 -50 0 0 -320z"/>
</g>
</svg>
